<svg xmlns="http://www.w3.org/2000/svg" xmlns:xlink="http://www.w3.org/1999/xlink" width="343.897" height="153.949" viewBox="0 0 343.897 153.949">
  <defs>
    <clipPath id="clip-path">
      <rect id="Rectángulo_694" data-name="Rectángulo 694" width="343.897" height="107.899" fill="none"/>
    </clipPath>
  </defs>
  <g id="Grupo_159" data-name="Grupo 159" transform="translate(-789 -131.051)">
    <text id="WHOLESALE" transform="translate(994 276)" fill="#ff662e" font-size="37" font-family="ArianeCoachella-Regular, Ariane Coachella" letter-spacing="0.019em"><tspan x="-111" y="0">WHOLESALE</tspan></text>
    <g id="Grupo_157" data-name="Grupo 157" transform="translate(789 131.051)">
      <g id="Grupo_156" data-name="Grupo 156" clip-path="url(#clip-path)">
        <path id="Trazado_794" data-name="Trazado 794" d="M94.906,106.415c2.194,0,3.769-.321,4.961-3.738l13.406-33.741h.382l13.6,33.741c1.383,3.417,2.576,3.738,4.77,3.738v.427h-9.97v-.427c2.194,0,3.339-.214,1.908-3.738l-3.53-8.755H104.209v-.054l-3.483,8.809c-1.336,3.417-.476,3.738,1.718,3.738v.427H94.906Zm25.238-13.294-7.873-19.6-7.776,19.6Z" fill="#4c1c14"/>
        <path id="Trazado_795" data-name="Trazado 795" d="M132.022,107.365h-9.971a.523.523,0,0,1-.523-.523v-.427a.523.523,0,0,1,.523-.523c.845,0,1.689-.029,1.915-.366.168-.248.217-.908-.491-2.652l-3.4-8.429H104.543l-3.331,8.424c-.7,1.8-.662,2.456-.5,2.689.2.293.951.334,1.733.334a.523.523,0,0,1,.523.523v.427a.523.523,0,0,1-.523.523H94.9a.523.523,0,0,1-.523-.523v-.427a.523.523,0,0,1,.523-.523c2.044,0,3.365-.228,4.467-3.387l13.415-33.763a.523.523,0,0,1,.486-.329h.381a.521.521,0,0,1,.485.327l13.6,33.742c1.322,3.265,2.325,3.41,4.286,3.41a.523.523,0,0,1,.523.523v.427a.523.523,0,0,1-.523.523m-7.357-1.046h4.457a6.824,6.824,0,0,1-2.356-3.446l-13.3-33.006-1.247,3.139a.419.419,0,0,1,.05,0h0a.521.521,0,0,1,.485.329l7.873,19.594a.518.518,0,0,1-.051.488l0,0a.522.522,0,0,1,.34.307l3.53,8.756c.748,1.839.864,2.924.391,3.628a1.533,1.533,0,0,1-.17.209m-26.709,0h2.028a1.29,1.29,0,0,1-.139-.172,2.138,2.138,0,0,1-.224-1.623,4.665,4.665,0,0,1-1.665,1.795M105.265,92.6H119.37l-7.1-17.661Z" fill="#4c1c14"/>
        <path id="Trazado_796" data-name="Trazado 796" d="M134.316,106.415c2.2,0,3.339-.321,3.339-3.737V73.634c0-3.417-1.144-3.737-3.339-3.737V69.47h13.978c9.065.053,13.883,2.295,13.883,8.381,0,5.233-4.245,7.636-12.309,7.956l8.97,16.871a6.837,6.837,0,0,0,6.345,3.737v.427h-7.777L146.243,85.86h-5.63v16.818c0,3.416,1.145,3.737,3.339,3.737v.427h-9.636Zm13.549-21.356c8.493,0,11.211-3.043,11.211-7.208,0-4.7-2.718-7.581-11.211-7.581h-7.252V85.059Z" fill="#4c1c14"/>
        <path id="Trazado_797" data-name="Trazado 797" d="M165.183,107.365h-7.777a.523.523,0,0,1-.461-.277l-11.017-20.7h-4.792v16.294c0,3.085.863,3.215,2.816,3.215a.523.523,0,0,1,.523.523v.427a.523.523,0,0,1-.523.523h-9.636a.523.523,0,0,1-.523-.523v-.427a.523.523,0,0,1,.523-.523c1.953,0,2.816-.13,2.816-3.215V73.634c0-3.084-.863-3.214-2.816-3.214a.523.523,0,0,1-.523-.523V69.47a.523.523,0,0,1,.523-.523h13.978c9.963.058,14.406,2.8,14.406,8.9,0,5.188-3.922,7.953-11.983,8.437l8.582,16.144a6.335,6.335,0,0,0,5.884,3.46.523.523,0,0,1,.522.523v.427a.523.523,0,0,1-.522.523m-7.462-1.046h4.245a7.258,7.258,0,0,1-3.589-3.394l-8.97-16.873a.519.519,0,0,1,.008-.505v0q-.748.038-1.55.037h-1.179l.019.032Zm-20.7,0h4.232c-.772-.583-1.16-1.672-1.16-3.642V85.86a.522.522,0,0,0,0-.8V70.27a.513.513,0,0,1,.08-.277h-3.151c.771.582,1.159,1.672,1.159,3.641v29.043c0,1.97-.388,3.059-1.16,3.642m16.5-35.976c4.121,1.048,6.077,3.5,6.077,7.508,0,3.647-1.995,6.016-5.947,7.081,5.438-.858,8-3.153,8-7.081,0-4.3-2.487-6.672-8.132-7.508M141.136,84.536h6.729c7.192,0,10.688-2.186,10.688-6.685,0-3.49-1.269-7.058-10.688-7.058h-6.729Z" fill="#4c1c14"/>
        <path id="Trazado_798" data-name="Trazado 798" d="M182.265,68.936c9.827,0,17.175,7.687,17.175,19.22s-7.348,19.22-17.175,19.22-17.175-7.688-17.175-19.22,7.346-19.22,17.175-19.22m0,37.639c8.491,0,14.074-8.382,14.074-18.419s-5.583-18.42-14.074-18.42-14.074,8.382-14.074,18.42,5.581,18.419,14.074,18.419" fill="#4c1c14"/>
        <path id="Trazado_799" data-name="Trazado 799" d="M182.265,107.9c-10.42,0-17.7-8.118-17.7-19.743s7.278-19.743,17.7-19.743,17.7,8.119,17.7,19.743-7.277,19.743-17.7,19.743M186.6,70c6.071,2.284,10.261,9.334,10.261,18.157s-4.19,15.874-10.261,18.158c7.428-1.927,12.316-8.857,12.316-18.158S194.029,71.926,186.6,70m-8.672,0c-7.428,1.927-12.316,8.857-12.316,18.157s4.888,16.231,12.316,18.158c-6.071-2.284-10.261-9.335-10.261-18.158S171.858,72.283,177.929,70m4.336.261c-7.725,0-13.551,7.694-13.551,17.9s5.826,17.9,13.551,17.9,13.551-7.694,13.551-17.9-5.826-17.9-13.551-17.9" fill="#4c1c14"/>
        <path id="Trazado_800" data-name="Trazado 800" d="M242.762,69.9c-1.717,0-2.863.32-2.863,3.737v29.044c0,3.417,1.146,3.738,3.34,3.738v.426H233.6v-.426c2.194,0,3.339-.321,3.339-3.738V71.605l-14.408,35.771h-.382l-15.981-35.4v30.7c0,3.417,1.145,3.738,3.339,3.738v.426h-7.4v-.426c2.2,0,3.34-.321,3.34-3.738V73.634c0-3.417-1.144-3.737-3.34-3.737V69.47h6.441l15.028,33.475L236.941,69.47h5.821Z" fill="#4c1c14"/>
        <path id="Trazado_801" data-name="Trazado 801" d="M222.534,107.9h-.382a.523.523,0,0,1-.476-.308L206.694,74.408v28.269c0,3.085.863,3.215,2.816,3.215a.523.523,0,0,1,.523.523v.427a.523.523,0,0,1-.523.523h-7.395a.523.523,0,0,1-.523-.523v-.427a.523.523,0,0,1,.523-.523c1.953,0,2.816-.13,2.816-3.215V73.633c0-3.084-.863-3.214-2.816-3.214a.523.523,0,0,1-.523-.523V69.47a.523.523,0,0,1,.523-.523h6.44a.523.523,0,0,1,.477.308L223.555,101.6l12.9-32.329a.524.524,0,0,1,.486-.328h5.821a.523.523,0,0,1,.523.523V69.9a.523.523,0,0,1-.523.523c-1.358,0-2.34,0-2.34,3.214v29.044c0,3.085.864,3.215,2.816,3.215a.523.523,0,0,1,.523.523v.427a.523.523,0,0,1-.523.523H233.6a.523.523,0,0,1-.523-.523v-.427a.523.523,0,0,1,.523-.523c1.953,0,2.816-.13,2.816-3.215V74.3l-13.4,33.268a.521.521,0,0,1-.484.328M206.171,71.456a.521.521,0,0,1,.476.308l15.68,34.727,1.217-3.025a.524.524,0,0,1-.437-.307L208.216,69.992h-3.4a2.747,2.747,0,0,1,.963,1.637.533.533,0,0,1,.279-.162.6.6,0,0,1,.111-.011M236.3,106.319h4.232c-.772-.583-1.16-1.672-1.16-3.642V73.633c0-1.961.376-3.054,1.073-3.641H237.3l-.437,1.1a.472.472,0,0,1,.183,0,.521.521,0,0,1,.423.513v31.072c0,1.97-.388,3.059-1.16,3.642m-31.488,0h1.991a2.828,2.828,0,0,1-.995-1.772,2.834,2.834,0,0,1-1,1.772" fill="#4c1c14"/>
        <path id="Trazado_802" data-name="Trazado 802" d="M244.58,106.415c2.194,0,3.768-.321,4.961-3.738l13.407-33.741h.381l13.6,33.741c1.384,3.417,2.575,3.738,4.771,3.738v.427h-9.972v-.427c2.2,0,3.341-.214,1.909-3.738L270.1,93.922h-16.22v-.054l-3.484,8.809c-1.336,3.417-.476,3.738,1.718,3.738v.427H244.58Zm25.237-13.294-7.872-19.6-7.776,19.6Z" fill="#4c1c14"/>
        <path id="Trazado_803" data-name="Trazado 803" d="M281.7,107.365h-9.972a.523.523,0,0,1-.523-.523v-.427a.523.523,0,0,1,.523-.523c.846,0,1.689-.029,1.916-.366.168-.248.217-.908-.491-2.652l-3.4-8.429H254.217l-3.331,8.424c-.7,1.8-.662,2.456-.5,2.689.2.293.952.334,1.734.334a.523.523,0,0,1,.523.523v.427a.523.523,0,0,1-.523.523H244.58a.523.523,0,0,1-.523-.523v-.427a.523.523,0,0,1,.523-.523c2.044,0,3.365-.228,4.467-3.387l13.415-33.763a.523.523,0,0,1,.486-.329h.381a.521.521,0,0,1,.485.327l13.6,33.742c1.322,3.265,2.325,3.41,4.286,3.41a.523.523,0,0,1,.523.523v.427a.523.523,0,0,1-.523.523m-7.357-1.046H278.8a6.824,6.824,0,0,1-2.356-3.446l-13.3-33.006-1.247,3.139a.419.419,0,0,1,.05,0h0a.521.521,0,0,1,.485.329L270.3,92.926a.521.521,0,0,1-.052.488l0,0a.521.521,0,0,1,.341.307l3.531,8.756c.748,1.838.864,2.924.391,3.628a1.6,1.6,0,0,1-.17.209m-26.711,0h2.028a1.47,1.47,0,0,1-.139-.172,2.144,2.144,0,0,1-.224-1.622,4.669,4.669,0,0,1-1.665,1.794M254.94,92.6h14.1l-7.1-17.661Z" fill="#4c1c14"/>
        <path id="Trazado_804" data-name="Trazado 804" d="M310.754,97.339c0,7.528-7.681,10.037-13.024,10.037-4.294,0-10.5-3.043-13.31-5.979l-.906-7.315h.62c1.717,6.513,7.061,12.493,13.6,12.493,4.437,0,10.258-1.174,10.258-8.168,0-11.746-23.043-6.514-23.043-19.861,0-7.529,6.965-9.5,11.735-9.5,5.344,0,8.922,1.975,11.021,4.912l1.383,8.383h-.619c-2.625-6.461-4.2-12.494-11.785-12.494-3.863,0-8.969,1.708-8.969,7.635,0,11.746,23.043,6.513,23.043,19.861" fill="#4c1c14"/>
        <path id="Trazado_805" data-name="Trazado 805" d="M297.73,107.9c-4.6,0-10.9-3.235-13.688-6.14a.521.521,0,0,1-.142-.3l-.906-7.314a.522.522,0,0,1,.519-.587h.62a.522.522,0,0,1,.505.389c1.587,6.015,6.593,12.1,13.092,12.1,6.459,0,9.734-2.573,9.734-7.646,0-5.3-5.15-6.932-10.6-8.657-5.83-1.843-12.437-3.934-12.437-11.2,0-7.4,6.6-10.026,12.258-10.026,5.089,0,9.047,1.774,11.445,5.13a.526.526,0,0,1,.091.22l1.384,8.382a.522.522,0,0,1-.516.608h-.62a.523.523,0,0,1-.485-.326c-.25-.617-.492-1.23-.728-1.834-2.271-5.773-4.064-10.334-10.571-10.334-1.411,0-8.447.343-8.447,7.113,0,5.3,5.151,6.931,10.6,8.656,5.831,1.844,12.439,3.934,12.439,11.2,0,7.255-7.022,10.559-13.546,10.559m-12.814-6.741a22.125,22.125,0,0,0,6.9,4.316,18.236,18.236,0,0,1-7.493-9.144Zm6.8-30.827c-3.036.98-6.249,3.2-6.249,8.215,0,6.5,5.688,8.3,11.708,10.207,5.573,1.763,11.335,3.586,11.335,9.654a8.071,8.071,0,0,1-2.512,6.28,8.225,8.225,0,0,0,4.232-7.347c0-6.5-5.687-8.3-11.708-10.208-5.572-1.763-11.335-3.586-11.335-9.653a7.38,7.38,0,0,1,4.529-7.148M300.655,70c4.143,1.612,5.815,5.857,7.562,10.3l-1.013-6.14A11,11,0,0,0,300.655,70" fill="#4c1c14"/>
        <path id="Trazado_806" data-name="Trazado 806" d="M112.957,15.343c9.968,0,17.42,7.8,17.42,19.5s-7.452,19.5-17.42,19.5-17.42-7.8-17.42-19.5,7.451-19.5,17.42-19.5m0,38.179c8.612,0,14.275-8.5,14.275-18.684s-5.663-18.683-14.275-18.683-14.275,8.5-14.275,18.683,5.661,18.684,14.275,18.684" fill="#4c1c14"/>
        <path id="Trazado_807" data-name="Trazado 807" d="M112.957,54.857c-10.564,0-17.943-8.231-17.943-20.018s7.379-20.019,17.943-20.019S130.9,23.052,130.9,34.839s-7.379,20.018-17.943,20.018m4.261-38.48c6.228,2.263,10.537,9.45,10.537,18.462s-4.309,16.2-10.537,18.461c7.616-1.9,12.636-8.966,12.636-18.461s-5.02-16.557-12.636-18.462m-8.522,0c-7.616,1.9-12.636,8.967-12.636,18.462S101.08,51.4,108.7,53.3c-6.228-2.263-10.537-9.45-10.537-18.461s4.309-16.2,10.537-18.462m4.261.3c-7.84,0-13.752,7.808-13.752,18.161S105.117,53,112.957,53s13.752-7.808,13.752-18.16S120.8,16.678,112.957,16.678" fill="#4c1c14"/>
        <path id="Trazado_808" data-name="Trazado 808" d="M133.093,53.36c2.226,0,3.387-.325,3.387-3.791V20.108c0-3.466-1.161-3.791-3.387-3.791v-.433H147.27c9.194.054,14.082,2.328,14.082,8.5,0,5.308-4.306,7.744-12.484,8.07l9.1,17.113A6.934,6.934,0,0,0,164.4,53.36v.433h-7.887L145.19,32.509h-5.709v17.06c0,3.466,1.161,3.791,3.387,3.791v.433h-9.775ZM146.836,31.7c8.612,0,11.37-3.087,11.37-7.311,0-4.765-2.758-7.69-11.37-7.69h-7.355v15Z" fill="#4c1c14"/>
        <path id="Trazado_809" data-name="Trazado 809" d="M164.4,54.316h-7.887a.525.525,0,0,1-.462-.278L144.875,33.032H140V49.569c0,3.135.878,3.268,2.864,3.268a.523.523,0,0,1,.523.523v.433a.523.523,0,0,1-.523.523h-9.774a.523.523,0,0,1-.523-.523V53.36a.523.523,0,0,1,.523-.523c1.985,0,2.864-.133,2.864-3.268V20.108c0-3.136-.879-3.268-2.864-3.268a.523.523,0,0,1-.523-.523v-.433a.523.523,0,0,1,.523-.523h14.177c10.1.06,14.605,2.843,14.605,9.025,0,5.259-3.98,8.061-12.159,8.551l8.71,16.387a6.435,6.435,0,0,0,5.974,3.513.523.523,0,0,1,.522.523v.433a.523.523,0,0,1-.522.523m-7.572-1.046h4.347a7.344,7.344,0,0,1-3.671-3.454l-9.1-17.115a.521.521,0,0,1,.008-.506l.008-.013q-.767.038-1.586.038h-1.211l.026.043Zm-21.018,0h4.34c-.793-.587-1.193-1.692-1.193-3.7V32.509a.521.521,0,0,1,.193-.406.521.521,0,0,1-.193-.406v-15a.529.529,0,0,1,.087-.289h-3.234c.792.587,1.193,1.692,1.193,3.7V49.569c0,2.009-.4,3.114-1.193,3.7m16.616-36.53c4.275,1.043,6.3,3.542,6.3,7.646,0,3.737-2.069,6.151-6.164,7.212,5.616-.855,8.264-3.19,8.264-7.212,0-4.4-2.567-6.816-8.4-7.646M140,31.174h6.833c7.3,0,10.847-2.221,10.847-6.788,0-3.544-1.289-7.167-10.847-7.167H140Z" fill="#4c1c14"/>
        <path id="Trazado_810" data-name="Trazado 810" d="M166.244,53.36c2.227,0,3.387-.325,3.387-3.791V20.109c0-3.466-1.16-3.792-3.387-3.792v-.434h9.774v.434c-2.225,0-3.387.326-3.387,3.792v29.46c0,3.466,1.162,3.791,3.387,3.791v.433h-9.774Z" fill="#4c1c14"/>
        <path id="Trazado_811" data-name="Trazado 811" d="M176.018,54.316h-9.774a.523.523,0,0,1-.523-.523V53.36a.523.523,0,0,1,.523-.523c1.986,0,2.864-.132,2.864-3.268V20.108c0-3.136-.878-3.268-2.864-3.268a.523.523,0,0,1-.523-.523v-.433a.523.523,0,0,1,.523-.523h9.774a.523.523,0,0,1,.523.523v.433a.523.523,0,0,1-.523.523c-1.985,0-2.864.132-2.864,3.268V49.569c0,3.136.879,3.268,2.864,3.268a.523.523,0,0,1,.523.523v.433a.523.523,0,0,1-.523.523m-7.057-1.046h4.34c-.792-.587-1.193-1.691-1.193-3.7V20.108c0-2.009.4-3.114,1.193-3.7h-4.34c.793.587,1.193,1.692,1.193,3.7V49.569c0,2.01-.4,3.114-1.193,3.7" fill="#4c1c14"/>
        <path id="Trazado_812" data-name="Trazado 812" d="M179.215,53.36c2.227,0,3.387-.325,3.387-3.791V20.109c0-3.466-1.16-3.792-3.387-3.792v-.434h26.373l.967,8.666h-.387c-1.113-5.47-2.614-7.853-6.048-7.853H185.6v15h11.855c3.1,0,3.389-1.3,3.389-3.79h.386V36.3h-.386c0-2.491-.292-3.791-3.389-3.791H185.6V52.981h15.485c3.436,0,4.935-2.383,6.049-7.853h.387l-.968,8.665h-27.34Z" fill="#4c1c14"/>
        <path id="Trazado_813" data-name="Trazado 813" d="M206.555,54.316h-27.34a.523.523,0,0,1-.523-.523V53.36a.523.523,0,0,1,.523-.523c1.986,0,2.864-.132,2.864-3.268V20.109c0-3.137-.878-3.269-2.864-3.269a.523.523,0,0,1-.523-.523v-.433a.523.523,0,0,1,.523-.523h26.373a.523.523,0,0,1,.52.465l.967,8.665a.524.524,0,0,1-.52.581h-.387a.522.522,0,0,1-.512-.419c-1.117-5.488-2.566-7.434-5.536-7.434H186.125V31.174h11.332c2.631,0,2.866-.847,2.866-3.267a.523.523,0,0,1,.523-.523h.386a.523.523,0,0,1,.523.523V36.3a.523.523,0,0,1-.523.522h-.386a.523.523,0,0,1-.523-.522c0-2.421-.235-3.268-2.866-3.268H186.125V52.458h14.962c2.97,0,4.419-1.946,5.537-7.434a.522.522,0,0,1,.512-.419h.387a.525.525,0,0,1,.52.581l-.968,8.665a.523.523,0,0,1-.52.465M202.83,53.27h3.258l.443-3.976c-.806,2.063-1.925,3.452-3.7,3.976m-20.9,0h3.234a.529.529,0,0,1-.087-.289V32.51a.518.518,0,0,1,.194-.406.521.521,0,0,1-.194-.407v-15a.529.529,0,0,1,.087-.289h-3.234c.793.587,1.193,1.692,1.193,3.7v29.46c0,2.01-.4,3.114-1.193,3.7M198.846,32.1a2.855,2.855,0,0,1,1.863,1.036V31.068a2.859,2.859,0,0,1-1.863,1.036m3.017-15.7c1.776.524,2.895,1.913,3.7,3.975l-.444-3.975Z" fill="#4c1c14"/>
        <path id="Trazado_814" data-name="Trazado 814" d="M210.238,53.36c2.225,0,3.387-.325,3.387-3.791V20.109c0-3.466-1.162-3.792-3.387-3.792v-.434h6.048L241.207,48.54V20.109c0-3.466-1.162-3.792-3.388-3.792v-.434h7.5v.434c-2.227,0-3.387.326-3.387,3.792V53.793h-.726L214.351,18.484V49.569c0,3.466,1.162,3.791,3.387,3.791v.433h-7.5Z" fill="#4c1c14"/>
        <path id="Trazado_815" data-name="Trazado 815" d="M241.933,54.316h-.726a.526.526,0,0,1-.417-.206L214.874,20.035V49.569c0,3.136.878,3.268,2.864,3.268a.523.523,0,0,1,.523.523v.433a.523.523,0,0,1-.523.523h-7.5a.523.523,0,0,1-.523-.523V53.36a.523.523,0,0,1,.523-.523c1.986,0,2.864-.132,2.864-3.268V20.109c0-3.137-.878-3.269-2.864-3.269a.523.523,0,0,1-.523-.523v-.433a.523.523,0,0,1,.523-.523h6.048a.521.521,0,0,1,.416.206l23.982,31.426V20.109c0-3.137-.878-3.269-2.865-3.269a.523.523,0,0,1-.523-.523v-.433a.523.523,0,0,1,.523-.523h7.5a.523.523,0,0,1,.523.523v.433a.523.523,0,0,1-.523.523c-1.986,0-2.864.132-2.864,3.269V53.793a.523.523,0,0,1-.523.523M212.955,53.27h2.066a2.865,2.865,0,0,1-1.032-1.84,2.875,2.875,0,0,1-1.034,1.84m1.4-35.309a.522.522,0,0,1,.417.206L241.41,53.2V49.022l-.035.013a.525.525,0,0,1-.583-.178l-24.765-32.45h-3.072a2.808,2.808,0,0,1,1.008,1.726.511.511,0,0,1,.22-.145.546.546,0,0,1,.168-.027m26.186-1.554a2.87,2.87,0,0,1,1.032,1.841,2.875,2.875,0,0,1,1.034-1.841Z" fill="#4c1c14"/>
        <path id="Trazado_816" data-name="Trazado 816" d="M277.359,26.173c-1.113-7.1-3.58-9.477-7.016-9.477h-6.291V49.569c0,3.466,1.162,3.79,3.387,3.79v.433h-9.774v-.433c2.225,0,3.387-.324,3.387-3.79V16.7h-6.291c-3.436,0-5.9,2.382-7.016,9.477h-.387l.967-10.29h28.454l.967,10.29Z" fill="#4c1c14"/>
        <path id="Trazado_817" data-name="Trazado 817" d="M267.439,54.316h-9.774a.523.523,0,0,1-.523-.523V53.36a.523.523,0,0,1,.523-.523c1.986,0,2.864-.132,2.864-3.268V17.219h-5.767c-2.367,0-5.244,1.027-6.5,9.036a.522.522,0,0,1-.516.442h-.387a.523.523,0,0,1-.52-.572l.967-10.29a.523.523,0,0,1,.52-.474h28.454a.522.522,0,0,1,.52.474l.967,10.29a.522.522,0,0,1-.52.572h-.387a.522.522,0,0,1-.516-.442c-1.257-8.009-4.133-9.036-6.5-9.036h-5.768v32.35c0,3.136.879,3.268,2.864,3.268a.523.523,0,0,1,.523.523v.433a.523.523,0,0,1-.523.523m-7.057-1.046h4.34c-.792-.587-1.193-1.691-1.193-3.7V16.7a.529.529,0,0,1,.087-.289h-2.128a.529.529,0,0,1,.087.289V49.569c0,2.01-.4,3.114-1.193,3.7m11.754-36.863c2.088.586,3.616,2.283,4.654,5.183l-.488-5.183Zm-23.334,0-.488,5.183c1.038-2.9,2.566-4.6,4.655-5.183Z" fill="#4c1c14"/>
        <path id="Trazado_818" data-name="Trazado 818" d="M276.058,53.359c2.226,0,3.823-.325,5.032-3.791l13.6-34.226h.387l13.792,34.226c1.4,3.466,2.612,3.791,4.838,3.791v.433H303.591v-.433c2.225,0,3.387-.216,1.935-3.791l-3.58-8.882H285.493v-.053l-3.532,8.935c-1.354,3.466-.484,3.791,1.743,3.791v.433h-7.646Zm25.6-13.485L293.671,20l-7.888,19.874Z" fill="#4c1c14"/>
        <path id="Trazado_819" data-name="Trazado 819" d="M313.7,54.315H303.592a.523.523,0,0,1-.523-.523v-.433a.523.523,0,0,1,.523-.523c.858,0,1.716-.028,1.949-.374.17-.252.222-.925-.5-2.7l-3.448-8.556H285.828l-3.38,8.551c-.574,1.469-.745,2.388-.51,2.734.206.3.971.342,1.767.342a.523.523,0,0,1,.523.523v.433a.523.523,0,0,1-.523.523h-7.646a.523.523,0,0,1-.523-.523v-.433a.523.523,0,0,1,.523-.523c2.077,0,3.418-.231,4.538-3.44L294.2,15.149a.523.523,0,0,1,.486-.33h.387a.521.521,0,0,1,.485.327l13.791,34.227c1.343,3.316,2.36,3.463,4.354,3.463a.523.523,0,0,1,.523.523v.433a.523.523,0,0,1-.523.523m-7.481-1.046h4.567c-.91-.562-1.641-1.608-2.409-3.5l-13.5-33.5-1.277,3.214a.44.44,0,0,1,.064,0h0a.522.522,0,0,1,.485.328l7.985,19.874a.521.521,0,0,1-.052.488l-.01.013a.528.528,0,0,1,.352.311l3.58,8.882c.757,1.862.876,2.961.4,3.673a1.382,1.382,0,0,1-.184.223m-27.1,0h2.1a1.445,1.445,0,0,1-.151-.185,2.2,2.2,0,0,1-.219-1.683,4.735,4.735,0,0,1-1.731,1.868m7.43-13.918h14.328L293.675,21.41Z" fill="#4c1c14"/>
        <path id="Trazado_820" data-name="Trazado 820" d="M316.034,53.36c2.227,0,3.387-.325,3.387-3.791V20.109c0-3.466-1.16-3.792-3.387-3.792v-.434h9.774v.434c-2.225,0-3.387.326-3.387,3.792V52.981h14.518c3.434,0,4.935-2.383,6.048-7.853h.387l-.967,8.665H316.034Z" fill="#4c1c14"/>
        <path id="Trazado_821" data-name="Trazado 821" d="M342.407,54.316H316.034a.523.523,0,0,1-.523-.523V53.36a.523.523,0,0,1,.523-.523c1.986,0,2.864-.132,2.864-3.268V20.108c0-3.136-.878-3.268-2.864-3.268a.523.523,0,0,1-.523-.523v-.433a.523.523,0,0,1,.523-.523h9.774a.523.523,0,0,1,.523.523v.433a.523.523,0,0,1-.523.523c-1.985,0-2.864.132-2.864,3.268v32.35h13.995c2.97,0,4.419-1.946,5.536-7.434a.522.522,0,0,1,.512-.419h.387a.524.524,0,0,1,.52.581l-.967,8.665a.523.523,0,0,1-.52.465m-3.725-1.046h3.256l.444-3.975c-.8,2.062-1.924,3.451-3.7,3.975m-19.931,0h3.234a.529.529,0,0,1-.087-.289V20.108c0-2.009.4-3.114,1.193-3.7h-4.34c.793.587,1.193,1.692,1.193,3.7V49.569c0,2.01-.4,3.114-1.193,3.7" fill="#4c1c14"/>
        <path id="Trazado_822" data-name="Trazado 822" d="M37.807,33.346c21.635,0,37.807,14.853,37.807,37.132S59.442,107.61,37.807,107.61,0,92.757,0,70.478,16.172,33.346,37.807,33.346m0,72.717c18.694,0,30.981-16.194,30.981-35.585S56.5,34.893,37.807,34.893,6.826,51.087,6.826,70.478s12.287,35.585,30.981,35.585" fill="#4c1c14"/>
        <path id="Trazado_823" data-name="Trazado 823" d="M20.656,97.565q-4.488,0-6.547-2.107a8.435,8.435,0,0,1-2.289-5.547,22.485,22.485,0,0,1,1.053-7.783,68.96,68.96,0,0,1,3.3-8.815L34.76,34.247h7.873L64.911,93.765l-6.109,3.8-8.478-22.3A13.107,13.107,0,0,0,45.7,76.387a18.7,18.7,0,0,0-3.8,2.322,20.871,20.871,0,0,0-3.159,3.1c-.946,1.147-3.652,4.58-4.445,5.784q-1.191,1.892-2.472,3.655a19.791,19.791,0,0,1-2.884,3.182,13.293,13.293,0,0,1-3.616,2.279,11.822,11.822,0,0,1-4.669.86M35.767,36.913l-17.4,36.4a55.081,55.081,0,0,0-3.8,10.492,18.488,18.488,0,0,0-.5,6.923,5.4,5.4,0,0,0,2.2,3.784,7.578,7.578,0,0,0,4.3,1.161,9.668,9.668,0,0,0,3.754-.688,12.17,12.17,0,0,0,3.021-1.806,16.081,16.081,0,0,0,2.517-2.58,28.07,28.07,0,0,0,2.061-3.01c1.037-1.6,3.925-5.526,4.995-7.246a59.264,59.264,0,0,1,3.387-4.9,36.978,36.978,0,0,1,3.663-4.128,11.709,11.709,0,0,1,3.891-2.58Z" fill="#4c1c14"/>
        <path id="Trazado_824" data-name="Trazado 824" d="M50.505,22.259v-.007a9.782,9.782,0,0,0-.8-3.739c-.007-.015-.013-.03-.019-.045a13.57,13.57,0,0,0-2.605-3.934c-.894-.99-1.88-1.892-2.865-2.794-.768-.718-1.536-1.435-2.287-2.169-.123-.121-.243-.244-.362-.368A13.126,13.126,0,0,1,40.2,7.471c-.413-.635-.762-1.312-1.12-1.981a.393.393,0,0,1,.045-.361c.023-.025.043-.049.064-.073l.03-.028a1.111,1.111,0,0,0,.391-1.011,1.268,1.268,0,0,0-.232-.578c-.092-.147-.2-.292-.288-.449l.009-.006c.062-.048.149-.111.231-.182a1.526,1.526,0,0,0,.369-.481A1.294,1.294,0,0,0,39.836,1.3l0-.015a1.577,1.577,0,0,1,.022.22,1.506,1.506,0,0,1-3.011,0,1.438,1.438,0,0,1,.023-.22l-.005.015A1.294,1.294,0,0,0,37,2.321a1.526,1.526,0,0,0,.369.481c.082.071.17.134.231.182l.009.006c-.092.157-.2.3-.288.449a1.268,1.268,0,0,0-.232.578,1.112,1.112,0,0,0,.392,1.011l.03.028c.02.024.04.048.063.073a.4.4,0,0,1,.046.361c-.359.669-.708,1.346-1.121,1.981A13.044,13.044,0,0,1,35.125,9.2q-.177.186-.362.368c-.751.734-1.519,1.451-2.287,2.169-.985.9-1.971,1.8-2.864,2.794a13.553,13.553,0,0,0-2.606,3.934l-.018.045a9.764,9.764,0,0,0-.8,3.739v.142a10.559,10.559,0,0,0,.876,4.148,1.226,1.226,0,0,0,.156.277,14.049,14.049,0,0,0,1.6,2.537,6.533,6.533,0,0,0,.517.574c.169.172.353.328.531.491a19.534,19.534,0,0,1-1.194-2.769,8.213,8.213,0,0,1-.23-.984c0-.043-.011-.086-.016-.129a8.2,8.2,0,0,1,.68-4.5,10.859,10.859,0,0,1,.8-1.438l0,0,.08-.118c.072-.1.146-.209.223-.313A25.913,25.913,0,0,1,33.752,16.5a18.605,18.605,0,0,0,3.067-3.269,10.222,10.222,0,0,0,1.393-2.911l.041-.1c.029-.066.055-.134.1-.238.041.1.067.172.1.238l.041.1a10.222,10.222,0,0,0,1.393,2.911A18.643,18.643,0,0,0,42.945,16.5a25.975,25.975,0,0,1,3.53,3.665c.076.1.15.208.222.313l.08.118,0,0a10.982,10.982,0,0,1,.8,1.438,8.21,8.21,0,0,1,.679,4.5c-.005.043-.011.086-.016.129a8.213,8.213,0,0,1-.23.984,19.535,19.535,0,0,1-1.194,2.769c.178-.163.362-.319.531-.491a6.534,6.534,0,0,0,.517-.574,14.049,14.049,0,0,0,1.6-2.537,1.226,1.226,0,0,0,.156-.277,10.541,10.541,0,0,0,.876-4.148c0-.045,0-.09,0-.135" fill="#4c1c14"/>
        <path id="Trazado_825" data-name="Trazado 825" d="M39.164.4a1.244,1.244,0,0,1,.668.886A1.5,1.5,0,0,0,38.751.061.988.988,0,0,0,39.164.4" fill="#4c1c14"/>
        <path id="Trazado_826" data-name="Trazado 826" d="M37.534.4a.991.991,0,0,0,.412-.338,1.5,1.5,0,0,0-1.08,1.224A1.241,1.241,0,0,1,37.534.4" fill="#4c1c14"/>
        <path id="Trazado_827" data-name="Trazado 827" d="M38.349,3.01a1.505,1.505,0,0,0,1.505-1.5,1.439,1.439,0,0,0-.022-.22A1.244,1.244,0,0,0,39.164.4a.984.984,0,0,1-.412-.338,1.362,1.362,0,0,0-.806,0A.984.984,0,0,1,37.534.4a1.244,1.244,0,0,0-.668.886,1.438,1.438,0,0,0-.022.22,1.505,1.505,0,0,0,1.5,1.5" fill="#4c1c14"/>
      </g>
    </g>
  </g>
</svg>
